<svg xmlns="http://www.w3.org/2000/svg" version="1.1" xmlns:xlink="http://www.w3.org/1999/xlink" xmlns:svgjs="http://svgjs.dev/svgjs" width="1920" height="1080" preserveAspectRatio="none" viewBox="0 0 1920 1080"><g mask="url(&quot;#SvgjsMask1057&quot;)" fill="none"><rect width="1920" height="1080" x="0" y="0" fill="url(&quot;#SvgjsLinearGradient1058&quot;)"></rect><path d="M0 43.68C3.69 16.51 10.15 4.29 36.67 0C145.15 -17.55 153.34 0 270 0C368.43 0 402.1 -48.11 466.87 0C537.1 52.17 476.26 200.57 540 200.57C633.86 200.57 658.09 92.1 782.07 0C793.09 -8.18 796.04 0 810 0C945 0 945 0 1080 0C1215 0 1215 0 1350 0C1466.38 0 1484.08 -28.19 1582.76 0C1619.08 10.38 1583.13 64.72 1620 77.14C1736.75 116.47 1769.69 128.89 1890 103.5C1952.46 90.32 1925.23 23.12 1985.54 0C2060.23 -28.63 2125.76 -52.99 2160 0C2212.99 82.01 2160 135 2160 270C2160 405 2160 405 2160 540C2160 675 2160 675 2160 810C2160 945 2226.95 1011.95 2160 1080C2094.13 1146.95 2026.27 1082.16 1894.35 1080C1891.27 1079.95 1892.86 1075.57 1890 1075.57C1879.44 1075.57 1878.95 1079.81 1867.5 1080C1743.95 1082.03 1743.75 1080 1620 1080C1513.93 1080 1444.72 1138.98 1407.86 1080C1360.34 1003.98 1446.41 945.59 1451.25 810C1456.05 675.59 1461.13 666.88 1427.14 540C1410.5 477.88 1391.75 432 1350 432C1304.09 432 1271.19 473.73 1251.82 540C1215.96 662.73 1289.99 700.42 1239.55 810C1204.08 887.04 1150.9 851.24 1080 913.24C996.52 986.24 1018.46 1025.85 930.79 1080C883.46 1109.23 870.39 1080 810 1080C752.63 1080 742.32 1105.77 695.25 1080C607.32 1031.84 605.65 932.14 540 932.14C488.72 932.14 524.39 1045.5 461.39 1080C389.39 1119.43 365.69 1080 270 1080C135 1080 67.5 1147.5 0 1080C-67.5 1012.5 0 945 0 810C0 675 0 675 0 540C0 405 0 405 0 270C0 156.84 -14.64 151.51 0 43.68" stroke="rgba(51, 121, 194, 0.58)" stroke-width="2"></path><path d="M540 412.94C491.87 445.77 507.27 477.59 507.27 540C507.27 581.12 503.31 611.49 540 620C654.68 646.59 685.24 639.29 810 610.2C856.81 599.29 883.13 583.77 883.13 540C883.13 445.43 885.09 361.33 810 333.53C713.52 297.8 643.24 342.53 540 412.94" stroke="rgba(51, 121, 194, 0.58)" stroke-width="2"></path><path d="M0 142.94C35.7 62.62 45.15 39.62 120 0C180.15 -31.85 195 0 270 0C333.28 0 369.08 -42.64 396.56 0C456.08 92.36 441.88 134.67 444 270C446.1 404.67 447.31 412.45 405 540C360.31 674.73 338.92 668.21 270 794.57C265.28 803.21 257.73 802.2 257.73 810C257.73 818.09 265.91 817.01 270 826.36C325.02 952.01 375.95 988.46 375.95 1080C375.95 1115.28 322.98 1080 270 1080C172.68 1080 165.66 1100.07 75.35 1080C30.66 1070.07 11.85 1062.45 0 1020C-25.83 927.45 0 915 0 810C0 675 0 675 0 540C0 405 0 405 0 270C0 206.47 -24.3 197.62 0 142.94" stroke="rgba(51, 121, 194, 0.58)" stroke-width="2"></path><path d="M1036.8 270C1032.85 134.7 990.93 106.71 1008 0C1012.53 -28.29 1044 0 1080 0C1215 0 1215 0 1350 0C1350 0 1350 0 1350 0C1383.75 135 1417.5 152.26 1417.5 270C1417.5 300.76 1376.14 272.53 1350 297C1231.93 407.53 1225.35 409.62 1129.09 540C1090.35 592.48 1106.06 662.73 1080 662.73C1053.39 662.73 1030.94 605.41 1023.75 540C1009.34 409.04 1040.73 404.7 1036.8 270" stroke="rgba(51, 121, 194, 0.58)" stroke-width="2"></path><path d="M1770 270C1826.84 237.32 1830.37 216 1890 216C1946.23 216 2001.72 228.92 2001.72 270C2001.72 333.06 1943.44 345.53 1890 424.29C1851.85 480.53 1818.53 488.64 1818.53 540C1818.53 574.11 1851.88 571.12 1890 595.23C2022.62 679.12 2044.8 664.36 2160 756C2179.8 771.75 2160 783 2160 810C2160 945 2209.59 994.59 2160 1080C2131.21 1129.59 2069.74 1108.35 2003.23 1080C1934.74 1050.81 1951.77 1016.52 1890 964.92C1790.15 881.52 1778.22 894.42 1680 810C1643.22 778.39 1644.39 774.96 1620 732.86C1566.18 639.96 1523.57 635.09 1523.57 540C1523.57 454.29 1556.2 441.16 1620 371.25C1679.41 306.16 1691.84 314.94 1770 270" stroke="rgba(51, 121, 194, 0.58)" stroke-width="2"></path><path d="M2160 135C2141.28 135 2089.38 46.12 2089.38 0C2089.38 -21.38 2147.87 -23.18 2160 0C2183.18 44.32 2176.59 135 2160 135" stroke="rgba(51, 121, 194, 0.58)" stroke-width="2"></path><path d="M630 810C630 759.95 721.65 745.2 810 745.2C879.15 745.2 945 762.91 945 810C945 876.31 883.31 972 810 972C725.81 972 630 873.35 630 810" stroke="rgba(51, 121, 194, 0.58)" stroke-width="2"></path><path d="M0 242.21C93.45 118.11 91.84 100.02 203.33 0C226.84 -21.09 236.67 0 270 0C298.13 0 324.19 -23.14 326.25 0C336.19 111.86 299.9 134.56 294 270C288.14 404.56 312.26 408.22 302.73 540C300.26 574.08 297.25 601.71 270 601.71C208.88 601.71 187.96 585.14 126 540C52.96 486.79 36.39 482.99 0 405C-26.61 347.99 0 337.5 0 270C0 256.11 -8.21 253.11 0 242.21" stroke="rgba(51, 121, 194, 0.58)" stroke-width="2"></path><path d="M0 618.75C27.78 618.75 104.32 724.62 104.32 810C104.32 862.74 31.97 895 0 895C-20.19 895 0 852.5 0 810C0 714.38 -24.38 618.75 0 618.75" stroke="rgba(51, 121, 194, 0.58)" stroke-width="2"></path><path d="M1830 810C1830 781.74 1857.42 748.64 1890 748.64C1929.61 748.64 1974.38 782.4 1974.38 810C1974.38 835.21 1930.5 854.26 1890 854.26C1858.31 854.26 1830 834.55 1830 810" stroke="rgba(51, 121, 194, 0.58)" stroke-width="2"></path><path d="M232.33 1080C232.33 1064.74 254.36 1030.91 270 1030.91C283.45 1030.91 290.51 1062.28 290.51 1080C290.51 1086.83 280.25 1080 270 1080C251.16 1080 232.33 1089.29 232.33 1080" stroke="rgba(51, 121, 194, 0.58)" stroke-width="2"></path><path d="M2112.1 1080C2112.1 1049.38 2147.28 990 2160 990C2171.23 990 2175.63 1050.63 2160 1080C2151.68 1095.63 2112.1 1094.38 2112.1 1080" stroke="rgba(51, 121, 194, 0.58)" stroke-width="2"></path></g><defs><mask id="SvgjsMask1057"><rect width="1920" height="1080" fill="#ffffff"></rect></mask><linearGradient x1="0%" y1="50%" x2="100%" y2="50%" gradientUnits="userSpaceOnUse" id="SvgjsLinearGradient1058"><stop stop-color="#0e2a47" offset="0"></stop><stop stop-color="#00459e" offset="1"></stop></linearGradient></defs></svg>