<svg xmlns="http://www.w3.org/2000/svg" version="1.1" xmlns:xlink="http://www.w3.org/1999/xlink" xmlns:svgjs="http://svgjs.dev/svgjs" width="1920" height="1080" preserveAspectRatio="none" viewBox="0 0 1920 1080"><g mask="url(&quot;#SvgjsMask1011&quot;)" fill="none"><rect width="1920" height="1080" x="0" y="0" fill="url(&quot;#SvgjsLinearGradient1012&quot;)"></rect><path d="M113.7 315.09L178.66 352.59L178.66 427.59L113.7 465.09L48.75 427.59L48.75 352.59zM243.61 315.09L308.56 352.59L308.56 427.59L243.61 465.09L178.66 427.59L178.66 352.59zM178.66 427.59L243.61 465.09L243.61 540.09L178.66 577.59L113.7 540.09L113.7 465.09zM243.61 540.09L308.56 577.59L308.56 652.59L243.61 690.09L178.66 652.59L178.66 577.59zM178.66 877.59L243.61 915.09L243.61 990.09L178.66 1027.59L113.7 990.09L113.7 915.09zM308.56 -22.41L373.52 15.09L373.52 90.09L308.56 127.59L243.61 90.09L243.61 15.09zM373.52 765.09L438.47 802.59L438.47 877.59L373.52 915.09L308.56 877.59L308.56 802.59zM438.47 202.59L503.43 240.09L503.43 315.09L438.47 352.59L373.52 315.09L373.52 240.09zM438.47 427.59L503.43 465.09L503.43 540.09L438.47 577.59L373.52 540.09L373.52 465.09zM633.33 90.09L698.29 127.59L698.29 202.59L633.33 240.09L568.38 202.59L568.38 127.59zM633.33 315.09L698.29 352.59L698.29 427.59L633.33 465.09L568.38 427.59L568.38 352.59zM568.38 877.59L633.33 915.09L633.33 990.09L568.38 1027.59L503.43 990.09L503.43 915.09zM698.29 -22.41L763.24 15.09L763.24 90.09L698.29 127.59L633.33 90.09L633.33 15.09zM763.24 315.09L828.2 352.59L828.2 427.59L763.24 465.09L698.29 427.59L698.29 352.59zM698.29 427.59L763.24 465.09L763.24 540.09L698.29 577.59L633.33 540.09L633.33 465.09zM698.29 1102.59L763.24 1140.09L763.24 1215.09L698.29 1252.59L633.33 1215.09L633.33 1140.09zM828.19 -22.41L893.15 15.09L893.15 90.09L828.19 127.59L763.24 90.09L763.24 15.09zM893.15 765.09L958.1 802.59L958.1 877.59L893.15 915.09L828.19 877.59L828.19 802.59zM958.1 -22.41L1023.06 15.09L1023.06 90.09L958.1 127.59L893.15 90.09L893.15 15.09zM1023.06 90.09L1088.01 127.59L1088.01 202.59L1023.06 240.09L958.1 202.59L958.1 127.59zM1152.96 90.09L1217.92 127.59L1217.92 202.59L1152.96 240.09L1088.01 202.59L1088.01 127.59zM1088.01 202.59L1152.96 240.09L1152.96 315.09L1088.01 352.59L1023.06 315.09L1023.06 240.09zM1217.92 877.59L1282.87 915.09L1282.87 990.09L1217.92 1027.59L1152.96 990.09L1152.96 915.09zM1347.83 202.59L1412.78 240.09L1412.78 315.09L1347.83 352.59L1282.87 315.09L1282.87 240.09zM1412.78 315.09L1477.73 352.59L1477.73 427.59L1412.78 465.09L1347.83 427.59L1347.83 352.59zM1412.78 990.09L1477.73 1027.59L1477.73 1102.59L1412.78 1140.09L1347.83 1102.59L1347.83 1027.59zM1477.73 -22.41L1542.69 15.09L1542.69 90.09L1477.73 127.59L1412.78 90.09L1412.78 15.09zM1542.69 765.09L1607.64 802.59L1607.64 877.59L1542.69 915.09L1477.73 877.59L1477.73 802.59zM1477.73 877.59L1542.69 915.09L1542.69 990.09L1477.73 1027.59L1412.78 990.09L1412.78 915.09zM1542.69 990.09L1607.64 1027.59L1607.64 1102.59L1542.69 1140.09L1477.73 1102.59L1477.73 1027.59zM1607.64 -22.41L1672.59 15.09L1672.59 90.09L1607.64 127.59L1542.69 90.09L1542.69 15.09zM1607.64 202.59L1672.59 240.09L1672.59 315.09L1607.64 352.59L1542.69 315.09L1542.69 240.09zM1672.59 540.09L1737.55 577.59L1737.55 652.59L1672.59 690.09L1607.64 652.59L1607.64 577.59zM1672.59 765.09L1737.55 802.59L1737.55 877.59L1672.59 915.09L1607.64 877.59L1607.64 802.59zM1802.5 90.09L1867.45 127.59L1867.45 202.59L1802.5 240.09L1737.55 202.59L1737.55 127.59zM1737.55 427.59L1802.5 465.09L1802.5 540.09L1737.55 577.59L1672.59 540.09L1672.59 465.09zM1802.5 990.09L1867.45 1027.59L1867.45 1102.59L1802.5 1140.09L1737.55 1102.59L1737.55 1027.59zM1737.55 1102.59L1802.5 1140.09L1802.5 1215.09L1737.55 1252.59L1672.59 1215.09L1672.59 1140.09zM1932.41 90.09L1997.36 127.59L1997.36 202.59L1932.41 240.09L1867.45 202.59L1867.45 127.59zM1932.41 315.09L1997.36 352.59L1997.36 427.59L1932.41 465.09L1867.45 427.59L1867.45 352.59zM1932.41 540.09L1997.36 577.59L1997.36 652.59L1932.41 690.09L1867.45 652.59L1867.45 577.59zM1867.45 1102.59L1932.41 1140.09L1932.41 1215.09L1867.45 1252.59L1802.5 1215.09L1802.5 1140.09z" stroke="#03305d" stroke-width="2"></path><path d="M106.2 315.09 a7.5 7.5 0 1 0 15 0 a7.5 7.5 0 1 0 -15 0zM171.16 352.59 a7.5 7.5 0 1 0 15 0 a7.5 7.5 0 1 0 -15 0zM171.16 427.59 a7.5 7.5 0 1 0 15 0 a7.5 7.5 0 1 0 -15 0zM106.2 465.09 a7.5 7.5 0 1 0 15 0 a7.5 7.5 0 1 0 -15 0zM41.25 427.59 a7.5 7.5 0 1 0 15 0 a7.5 7.5 0 1 0 -15 0zM41.25 352.59 a7.5 7.5 0 1 0 15 0 a7.5 7.5 0 1 0 -15 0zM236.11 315.09 a7.5 7.5 0 1 0 15 0 a7.5 7.5 0 1 0 -15 0zM301.06 352.59 a7.5 7.5 0 1 0 15 0 a7.5 7.5 0 1 0 -15 0zM301.06 427.59 a7.5 7.5 0 1 0 15 0 a7.5 7.5 0 1 0 -15 0zM236.11 465.09 a7.5 7.5 0 1 0 15 0 a7.5 7.5 0 1 0 -15 0zM236.11 540.09 a7.5 7.5 0 1 0 15 0 a7.5 7.5 0 1 0 -15 0zM171.16 577.59 a7.5 7.5 0 1 0 15 0 a7.5 7.5 0 1 0 -15 0zM106.2 540.09 a7.5 7.5 0 1 0 15 0 a7.5 7.5 0 1 0 -15 0zM301.06 577.59 a7.5 7.5 0 1 0 15 0 a7.5 7.5 0 1 0 -15 0zM301.06 652.59 a7.5 7.5 0 1 0 15 0 a7.5 7.5 0 1 0 -15 0zM236.11 690.09 a7.5 7.5 0 1 0 15 0 a7.5 7.5 0 1 0 -15 0zM171.16 652.59 a7.5 7.5 0 1 0 15 0 a7.5 7.5 0 1 0 -15 0zM171.16 877.59 a7.5 7.5 0 1 0 15 0 a7.5 7.5 0 1 0 -15 0zM236.11 915.09 a7.5 7.5 0 1 0 15 0 a7.5 7.5 0 1 0 -15 0zM236.11 990.09 a7.5 7.5 0 1 0 15 0 a7.5 7.5 0 1 0 -15 0zM171.16 1027.59 a7.5 7.5 0 1 0 15 0 a7.5 7.5 0 1 0 -15 0zM106.2 990.09 a7.5 7.5 0 1 0 15 0 a7.5 7.5 0 1 0 -15 0zM106.2 915.09 a7.5 7.5 0 1 0 15 0 a7.5 7.5 0 1 0 -15 0zM301.06 -22.41 a7.5 7.5 0 1 0 15 0 a7.5 7.5 0 1 0 -15 0zM366.02 15.09 a7.5 7.5 0 1 0 15 0 a7.5 7.5 0 1 0 -15 0zM366.02 90.09 a7.5 7.5 0 1 0 15 0 a7.5 7.5 0 1 0 -15 0zM301.06 127.59 a7.5 7.5 0 1 0 15 0 a7.5 7.5 0 1 0 -15 0zM236.11 90.09 a7.5 7.5 0 1 0 15 0 a7.5 7.5 0 1 0 -15 0zM236.11 15.09 a7.5 7.5 0 1 0 15 0 a7.5 7.5 0 1 0 -15 0zM366.02 765.09 a7.5 7.5 0 1 0 15 0 a7.5 7.5 0 1 0 -15 0zM430.97 802.59 a7.5 7.5 0 1 0 15 0 a7.5 7.5 0 1 0 -15 0zM430.97 877.59 a7.5 7.5 0 1 0 15 0 a7.5 7.5 0 1 0 -15 0zM366.02 915.09 a7.5 7.5 0 1 0 15 0 a7.5 7.5 0 1 0 -15 0zM301.06 877.59 a7.5 7.5 0 1 0 15 0 a7.5 7.5 0 1 0 -15 0zM301.06 802.59 a7.5 7.5 0 1 0 15 0 a7.5 7.5 0 1 0 -15 0zM430.97 202.59 a7.5 7.5 0 1 0 15 0 a7.5 7.5 0 1 0 -15 0zM495.93 240.09 a7.5 7.5 0 1 0 15 0 a7.5 7.5 0 1 0 -15 0zM495.93 315.09 a7.5 7.5 0 1 0 15 0 a7.5 7.5 0 1 0 -15 0zM430.97 352.59 a7.5 7.5 0 1 0 15 0 a7.5 7.5 0 1 0 -15 0zM366.02 315.09 a7.5 7.5 0 1 0 15 0 a7.5 7.5 0 1 0 -15 0zM366.02 240.09 a7.5 7.5 0 1 0 15 0 a7.5 7.5 0 1 0 -15 0zM430.97 427.59 a7.5 7.5 0 1 0 15 0 a7.5 7.5 0 1 0 -15 0zM495.93 465.09 a7.5 7.5 0 1 0 15 0 a7.5 7.5 0 1 0 -15 0zM495.93 540.09 a7.5 7.5 0 1 0 15 0 a7.5 7.5 0 1 0 -15 0zM430.97 577.59 a7.5 7.5 0 1 0 15 0 a7.5 7.5 0 1 0 -15 0zM366.02 540.09 a7.5 7.5 0 1 0 15 0 a7.5 7.5 0 1 0 -15 0zM366.02 465.09 a7.5 7.5 0 1 0 15 0 a7.5 7.5 0 1 0 -15 0zM625.83 90.09 a7.5 7.5 0 1 0 15 0 a7.5 7.5 0 1 0 -15 0zM690.79 127.59 a7.5 7.5 0 1 0 15 0 a7.5 7.5 0 1 0 -15 0zM690.79 202.59 a7.5 7.5 0 1 0 15 0 a7.5 7.5 0 1 0 -15 0zM625.83 240.09 a7.5 7.5 0 1 0 15 0 a7.5 7.5 0 1 0 -15 0zM560.88 202.59 a7.5 7.5 0 1 0 15 0 a7.5 7.5 0 1 0 -15 0zM560.88 127.59 a7.5 7.5 0 1 0 15 0 a7.5 7.5 0 1 0 -15 0zM625.83 315.09 a7.5 7.5 0 1 0 15 0 a7.5 7.5 0 1 0 -15 0zM690.79 352.59 a7.5 7.5 0 1 0 15 0 a7.5 7.5 0 1 0 -15 0zM690.79 427.59 a7.5 7.5 0 1 0 15 0 a7.5 7.5 0 1 0 -15 0zM625.83 465.09 a7.5 7.5 0 1 0 15 0 a7.5 7.5 0 1 0 -15 0zM560.88 427.59 a7.5 7.5 0 1 0 15 0 a7.5 7.5 0 1 0 -15 0zM560.88 352.59 a7.5 7.5 0 1 0 15 0 a7.5 7.5 0 1 0 -15 0zM560.88 877.59 a7.5 7.5 0 1 0 15 0 a7.5 7.5 0 1 0 -15 0zM625.83 915.09 a7.5 7.5 0 1 0 15 0 a7.5 7.5 0 1 0 -15 0zM625.83 990.09 a7.5 7.5 0 1 0 15 0 a7.5 7.5 0 1 0 -15 0zM560.88 1027.59 a7.5 7.5 0 1 0 15 0 a7.5 7.5 0 1 0 -15 0zM495.93 990.09 a7.5 7.5 0 1 0 15 0 a7.5 7.5 0 1 0 -15 0zM495.93 915.09 a7.5 7.5 0 1 0 15 0 a7.5 7.5 0 1 0 -15 0zM690.79 -22.41 a7.5 7.5 0 1 0 15 0 a7.5 7.5 0 1 0 -15 0zM755.74 15.09 a7.5 7.5 0 1 0 15 0 a7.5 7.5 0 1 0 -15 0zM755.74 90.09 a7.5 7.5 0 1 0 15 0 a7.5 7.5 0 1 0 -15 0zM625.83 15.09 a7.5 7.5 0 1 0 15 0 a7.5 7.5 0 1 0 -15 0zM755.74 315.09 a7.5 7.5 0 1 0 15 0 a7.5 7.5 0 1 0 -15 0zM820.7 352.59 a7.5 7.5 0 1 0 15 0 a7.5 7.5 0 1 0 -15 0zM820.7 427.59 a7.5 7.5 0 1 0 15 0 a7.5 7.5 0 1 0 -15 0zM755.74 465.09 a7.5 7.5 0 1 0 15 0 a7.5 7.5 0 1 0 -15 0zM755.74 540.09 a7.5 7.5 0 1 0 15 0 a7.5 7.5 0 1 0 -15 0zM690.79 577.59 a7.5 7.5 0 1 0 15 0 a7.5 7.5 0 1 0 -15 0zM625.83 540.09 a7.5 7.5 0 1 0 15 0 a7.5 7.5 0 1 0 -15 0zM690.79 1102.59 a7.5 7.5 0 1 0 15 0 a7.5 7.5 0 1 0 -15 0zM755.74 1140.09 a7.5 7.5 0 1 0 15 0 a7.5 7.5 0 1 0 -15 0zM755.74 1215.09 a7.5 7.5 0 1 0 15 0 a7.5 7.5 0 1 0 -15 0zM690.79 1252.59 a7.5 7.5 0 1 0 15 0 a7.5 7.5 0 1 0 -15 0zM625.83 1215.09 a7.5 7.5 0 1 0 15 0 a7.5 7.5 0 1 0 -15 0zM625.83 1140.09 a7.5 7.5 0 1 0 15 0 a7.5 7.5 0 1 0 -15 0zM820.69 -22.41 a7.5 7.5 0 1 0 15 0 a7.5 7.5 0 1 0 -15 0zM885.65 15.09 a7.5 7.5 0 1 0 15 0 a7.5 7.5 0 1 0 -15 0zM885.65 90.09 a7.5 7.5 0 1 0 15 0 a7.5 7.5 0 1 0 -15 0zM820.69 127.59 a7.5 7.5 0 1 0 15 0 a7.5 7.5 0 1 0 -15 0zM885.65 765.09 a7.5 7.5 0 1 0 15 0 a7.5 7.5 0 1 0 -15 0zM950.6 802.59 a7.5 7.5 0 1 0 15 0 a7.5 7.5 0 1 0 -15 0zM950.6 877.59 a7.5 7.5 0 1 0 15 0 a7.5 7.5 0 1 0 -15 0zM885.65 915.09 a7.5 7.5 0 1 0 15 0 a7.5 7.5 0 1 0 -15 0zM820.69 877.59 a7.5 7.5 0 1 0 15 0 a7.5 7.5 0 1 0 -15 0zM820.69 802.59 a7.5 7.5 0 1 0 15 0 a7.5 7.5 0 1 0 -15 0zM950.6 -22.41 a7.5 7.5 0 1 0 15 0 a7.5 7.5 0 1 0 -15 0zM1015.56 15.09 a7.5 7.5 0 1 0 15 0 a7.5 7.5 0 1 0 -15 0zM1015.56 90.09 a7.5 7.5 0 1 0 15 0 a7.5 7.5 0 1 0 -15 0zM950.6 127.59 a7.5 7.5 0 1 0 15 0 a7.5 7.5 0 1 0 -15 0zM1080.51 127.59 a7.5 7.5 0 1 0 15 0 a7.5 7.5 0 1 0 -15 0zM1080.51 202.59 a7.5 7.5 0 1 0 15 0 a7.5 7.5 0 1 0 -15 0zM1015.56 240.09 a7.5 7.5 0 1 0 15 0 a7.5 7.5 0 1 0 -15 0zM950.6 202.59 a7.5 7.5 0 1 0 15 0 a7.5 7.5 0 1 0 -15 0zM1145.46 90.09 a7.5 7.5 0 1 0 15 0 a7.5 7.5 0 1 0 -15 0zM1210.42 127.59 a7.5 7.5 0 1 0 15 0 a7.5 7.5 0 1 0 -15 0zM1210.42 202.59 a7.5 7.5 0 1 0 15 0 a7.5 7.5 0 1 0 -15 0zM1145.46 240.09 a7.5 7.5 0 1 0 15 0 a7.5 7.5 0 1 0 -15 0zM1145.46 315.09 a7.5 7.5 0 1 0 15 0 a7.5 7.5 0 1 0 -15 0zM1080.51 352.59 a7.5 7.5 0 1 0 15 0 a7.5 7.5 0 1 0 -15 0zM1015.56 315.09 a7.5 7.5 0 1 0 15 0 a7.5 7.5 0 1 0 -15 0zM1210.42 877.59 a7.5 7.5 0 1 0 15 0 a7.5 7.5 0 1 0 -15 0zM1275.37 915.09 a7.5 7.5 0 1 0 15 0 a7.5 7.5 0 1 0 -15 0zM1275.37 990.09 a7.5 7.5 0 1 0 15 0 a7.5 7.5 0 1 0 -15 0zM1210.42 1027.59 a7.5 7.5 0 1 0 15 0 a7.5 7.5 0 1 0 -15 0zM1145.46 990.09 a7.5 7.5 0 1 0 15 0 a7.5 7.5 0 1 0 -15 0zM1145.46 915.09 a7.5 7.5 0 1 0 15 0 a7.5 7.5 0 1 0 -15 0zM1340.33 202.59 a7.5 7.5 0 1 0 15 0 a7.5 7.5 0 1 0 -15 0zM1405.28 240.09 a7.5 7.5 0 1 0 15 0 a7.5 7.5 0 1 0 -15 0zM1405.28 315.09 a7.5 7.5 0 1 0 15 0 a7.5 7.5 0 1 0 -15 0zM1340.33 352.59 a7.5 7.5 0 1 0 15 0 a7.5 7.5 0 1 0 -15 0zM1275.37 315.09 a7.5 7.5 0 1 0 15 0 a7.5 7.5 0 1 0 -15 0zM1275.37 240.09 a7.5 7.5 0 1 0 15 0 a7.5 7.5 0 1 0 -15 0zM1470.23 352.59 a7.5 7.5 0 1 0 15 0 a7.5 7.5 0 1 0 -15 0zM1470.23 427.59 a7.5 7.5 0 1 0 15 0 a7.5 7.5 0 1 0 -15 0zM1405.28 465.09 a7.5 7.5 0 1 0 15 0 a7.5 7.5 0 1 0 -15 0zM1340.33 427.59 a7.5 7.5 0 1 0 15 0 a7.5 7.5 0 1 0 -15 0zM1405.28 990.09 a7.5 7.5 0 1 0 15 0 a7.5 7.5 0 1 0 -15 0zM1470.23 1027.59 a7.5 7.5 0 1 0 15 0 a7.5 7.5 0 1 0 -15 0zM1470.23 1102.59 a7.5 7.5 0 1 0 15 0 a7.5 7.5 0 1 0 -15 0zM1405.28 1140.09 a7.5 7.5 0 1 0 15 0 a7.5 7.5 0 1 0 -15 0zM1340.33 1102.59 a7.5 7.5 0 1 0 15 0 a7.5 7.5 0 1 0 -15 0zM1340.33 1027.59 a7.5 7.5 0 1 0 15 0 a7.5 7.5 0 1 0 -15 0zM1470.23 -22.41 a7.5 7.5 0 1 0 15 0 a7.5 7.5 0 1 0 -15 0zM1535.19 15.09 a7.5 7.5 0 1 0 15 0 a7.5 7.5 0 1 0 -15 0zM1535.19 90.09 a7.5 7.5 0 1 0 15 0 a7.5 7.5 0 1 0 -15 0zM1470.23 127.59 a7.5 7.5 0 1 0 15 0 a7.5 7.5 0 1 0 -15 0zM1405.28 90.09 a7.5 7.5 0 1 0 15 0 a7.5 7.5 0 1 0 -15 0zM1405.28 15.09 a7.5 7.5 0 1 0 15 0 a7.5 7.5 0 1 0 -15 0zM1535.19 765.09 a7.5 7.5 0 1 0 15 0 a7.5 7.5 0 1 0 -15 0zM1600.14 802.59 a7.5 7.5 0 1 0 15 0 a7.5 7.5 0 1 0 -15 0zM1600.14 877.59 a7.5 7.5 0 1 0 15 0 a7.5 7.5 0 1 0 -15 0zM1535.19 915.09 a7.5 7.5 0 1 0 15 0 a7.5 7.5 0 1 0 -15 0zM1470.23 877.59 a7.5 7.5 0 1 0 15 0 a7.5 7.5 0 1 0 -15 0zM1470.23 802.59 a7.5 7.5 0 1 0 15 0 a7.5 7.5 0 1 0 -15 0zM1535.19 990.09 a7.5 7.5 0 1 0 15 0 a7.5 7.5 0 1 0 -15 0zM1405.28 915.09 a7.5 7.5 0 1 0 15 0 a7.5 7.5 0 1 0 -15 0zM1600.14 1027.59 a7.5 7.5 0 1 0 15 0 a7.5 7.5 0 1 0 -15 0zM1600.14 1102.59 a7.5 7.5 0 1 0 15 0 a7.5 7.5 0 1 0 -15 0zM1535.19 1140.09 a7.5 7.5 0 1 0 15 0 a7.5 7.5 0 1 0 -15 0zM1600.14 -22.41 a7.5 7.5 0 1 0 15 0 a7.5 7.5 0 1 0 -15 0zM1665.09 15.09 a7.5 7.5 0 1 0 15 0 a7.5 7.5 0 1 0 -15 0zM1665.09 90.09 a7.5 7.5 0 1 0 15 0 a7.5 7.5 0 1 0 -15 0zM1600.14 127.59 a7.5 7.5 0 1 0 15 0 a7.5 7.5 0 1 0 -15 0zM1600.14 202.59 a7.5 7.5 0 1 0 15 0 a7.5 7.5 0 1 0 -15 0zM1665.09 240.09 a7.5 7.5 0 1 0 15 0 a7.5 7.5 0 1 0 -15 0zM1665.09 315.09 a7.5 7.5 0 1 0 15 0 a7.5 7.5 0 1 0 -15 0zM1600.14 352.59 a7.5 7.5 0 1 0 15 0 a7.5 7.5 0 1 0 -15 0zM1535.19 315.09 a7.5 7.5 0 1 0 15 0 a7.5 7.5 0 1 0 -15 0zM1535.19 240.09 a7.5 7.5 0 1 0 15 0 a7.5 7.5 0 1 0 -15 0zM1665.09 540.09 a7.5 7.5 0 1 0 15 0 a7.5 7.5 0 1 0 -15 0zM1730.05 577.59 a7.5 7.5 0 1 0 15 0 a7.5 7.5 0 1 0 -15 0zM1730.05 652.59 a7.5 7.5 0 1 0 15 0 a7.5 7.5 0 1 0 -15 0zM1665.09 690.09 a7.5 7.5 0 1 0 15 0 a7.5 7.5 0 1 0 -15 0zM1600.14 652.59 a7.5 7.5 0 1 0 15 0 a7.5 7.5 0 1 0 -15 0zM1600.14 577.59 a7.5 7.5 0 1 0 15 0 a7.5 7.5 0 1 0 -15 0zM1665.09 765.09 a7.5 7.5 0 1 0 15 0 a7.5 7.5 0 1 0 -15 0zM1730.05 802.59 a7.5 7.5 0 1 0 15 0 a7.5 7.5 0 1 0 -15 0zM1730.05 877.59 a7.5 7.5 0 1 0 15 0 a7.5 7.5 0 1 0 -15 0zM1665.09 915.09 a7.5 7.5 0 1 0 15 0 a7.5 7.5 0 1 0 -15 0zM1795 90.09 a7.5 7.5 0 1 0 15 0 a7.5 7.5 0 1 0 -15 0zM1859.95 127.59 a7.5 7.5 0 1 0 15 0 a7.5 7.5 0 1 0 -15 0zM1859.95 202.59 a7.5 7.5 0 1 0 15 0 a7.5 7.5 0 1 0 -15 0zM1795 240.09 a7.5 7.5 0 1 0 15 0 a7.5 7.5 0 1 0 -15 0zM1730.05 202.59 a7.5 7.5 0 1 0 15 0 a7.5 7.5 0 1 0 -15 0zM1730.05 127.59 a7.5 7.5 0 1 0 15 0 a7.5 7.5 0 1 0 -15 0zM1730.05 427.59 a7.5 7.5 0 1 0 15 0 a7.5 7.5 0 1 0 -15 0zM1795 465.09 a7.5 7.5 0 1 0 15 0 a7.5 7.5 0 1 0 -15 0zM1795 540.09 a7.5 7.5 0 1 0 15 0 a7.5 7.5 0 1 0 -15 0zM1665.09 465.09 a7.5 7.5 0 1 0 15 0 a7.5 7.5 0 1 0 -15 0zM1795 990.09 a7.5 7.5 0 1 0 15 0 a7.5 7.5 0 1 0 -15 0zM1859.95 1027.59 a7.5 7.5 0 1 0 15 0 a7.5 7.5 0 1 0 -15 0zM1859.95 1102.59 a7.5 7.5 0 1 0 15 0 a7.5 7.5 0 1 0 -15 0zM1795 1140.09 a7.5 7.5 0 1 0 15 0 a7.5 7.5 0 1 0 -15 0zM1730.05 1102.59 a7.5 7.5 0 1 0 15 0 a7.5 7.5 0 1 0 -15 0zM1730.05 1027.59 a7.5 7.5 0 1 0 15 0 a7.5 7.5 0 1 0 -15 0zM1795 1215.09 a7.5 7.5 0 1 0 15 0 a7.5 7.5 0 1 0 -15 0zM1730.05 1252.59 a7.5 7.5 0 1 0 15 0 a7.5 7.5 0 1 0 -15 0zM1665.09 1215.09 a7.5 7.5 0 1 0 15 0 a7.5 7.5 0 1 0 -15 0zM1665.09 1140.09 a7.5 7.5 0 1 0 15 0 a7.5 7.5 0 1 0 -15 0zM1924.91 90.09 a7.5 7.5 0 1 0 15 0 a7.5 7.5 0 1 0 -15 0zM1989.86 127.59 a7.5 7.5 0 1 0 15 0 a7.5 7.5 0 1 0 -15 0zM1989.86 202.59 a7.5 7.5 0 1 0 15 0 a7.5 7.5 0 1 0 -15 0zM1924.91 240.09 a7.5 7.5 0 1 0 15 0 a7.5 7.5 0 1 0 -15 0zM1924.91 315.09 a7.5 7.5 0 1 0 15 0 a7.5 7.5 0 1 0 -15 0zM1989.86 352.59 a7.5 7.5 0 1 0 15 0 a7.5 7.5 0 1 0 -15 0zM1989.86 427.59 a7.5 7.5 0 1 0 15 0 a7.5 7.5 0 1 0 -15 0zM1924.91 465.09 a7.5 7.5 0 1 0 15 0 a7.5 7.5 0 1 0 -15 0zM1859.95 427.59 a7.5 7.5 0 1 0 15 0 a7.5 7.5 0 1 0 -15 0zM1859.95 352.59 a7.5 7.5 0 1 0 15 0 a7.5 7.5 0 1 0 -15 0zM1924.91 540.09 a7.5 7.5 0 1 0 15 0 a7.5 7.5 0 1 0 -15 0zM1989.86 577.59 a7.5 7.5 0 1 0 15 0 a7.5 7.5 0 1 0 -15 0zM1989.86 652.59 a7.5 7.5 0 1 0 15 0 a7.5 7.5 0 1 0 -15 0zM1924.91 690.09 a7.5 7.5 0 1 0 15 0 a7.5 7.5 0 1 0 -15 0zM1859.95 652.59 a7.5 7.5 0 1 0 15 0 a7.5 7.5 0 1 0 -15 0zM1859.95 577.59 a7.5 7.5 0 1 0 15 0 a7.5 7.5 0 1 0 -15 0zM1924.91 1140.09 a7.5 7.5 0 1 0 15 0 a7.5 7.5 0 1 0 -15 0zM1924.91 1215.09 a7.5 7.5 0 1 0 15 0 a7.5 7.5 0 1 0 -15 0zM1859.95 1252.59 a7.5 7.5 0 1 0 15 0 a7.5 7.5 0 1 0 -15 0z" fill="#03305d"></path><path d="M66.84 218.8L110.15 243.8L110.15 293.8L66.84 318.8L23.54 293.8L23.54 243.8zM23.54 443.8L66.84 468.8L66.84 518.8L23.54 543.8L-19.76 518.8L-19.76 468.8zM66.84 818.8L110.15 843.8L110.15 893.8L66.84 918.8L23.54 893.8L23.54 843.8zM110.15 -6.2L153.45 18.8L153.45 68.8L110.15 93.8L66.84 68.8L66.84 18.8zM153.45 68.8L196.75 93.8L196.75 143.8L153.45 168.8L110.15 143.8L110.15 93.8zM240.05 68.8L283.36 93.8L283.36 143.8L240.05 168.8L196.75 143.8L196.75 93.8zM240.05 218.8L283.36 243.8L283.36 293.8L240.05 318.8L196.75 293.8L196.75 243.8zM240.05 368.8L283.36 393.8L283.36 443.8L240.05 468.8L196.75 443.8L196.75 393.8zM196.75 443.8L240.05 468.8L240.05 518.8L196.75 543.8L153.45 518.8L153.45 468.8zM326.66 218.8L369.96 243.8L369.96 293.8L326.66 318.8L283.36 293.8L283.36 243.8zM326.66 818.8L369.96 843.8L369.96 893.8L326.66 918.8L283.36 893.8L283.36 843.8zM283.36 893.8L326.66 918.8L326.66 968.8L283.36 993.8L240.05 968.8L240.05 918.8zM283.36 1043.8L326.66 1068.8L326.66 1118.8L283.36 1143.8L240.05 1118.8L240.05 1068.8zM369.96 293.8L413.26 318.8L413.26 368.8L369.96 393.8L326.66 368.8L326.66 318.8zM369.96 593.8L413.26 618.8L413.26 668.8L369.96 693.8L326.66 668.8L326.66 618.8zM499.87 518.8L543.17 543.8L543.17 593.8L499.87 618.8L456.57 593.8L456.57 543.8zM456.57 893.8L499.87 918.8L499.87 968.8L456.57 993.8L413.26 968.8L413.26 918.8zM543.17 593.8L586.47 618.8L586.47 668.8L543.17 693.8L499.87 668.8L499.87 618.8zM543.17 1043.8L586.47 1068.8L586.47 1118.8L543.17 1143.8L499.87 1118.8L499.87 1068.8zM629.77 -6.2L673.08 18.8L673.08 68.8L629.77 93.8L586.47 68.8L586.47 18.8zM673.08 218.8L716.38 243.8L716.38 293.8L673.08 318.8L629.77 293.8L629.77 243.8zM629.77 293.8L673.08 318.8L673.08 368.8L629.77 393.8L586.47 368.8L586.47 318.8zM629.77 893.8L673.08 918.8L673.08 968.8L629.77 993.8L586.47 968.8L586.47 918.8zM673.08 968.8L716.38 993.8L716.38 1043.8L673.08 1068.8L629.77 1043.8L629.77 993.8zM716.38 -6.2L759.68 18.8L759.68 68.8L716.38 93.8L673.08 68.8L673.08 18.8zM716.38 143.8L759.68 168.8L759.68 218.8L716.38 243.8L673.08 218.8L673.08 168.8zM759.68 218.8L802.99 243.8L802.99 293.8L759.68 318.8L716.38 293.8L716.38 243.8zM716.38 293.8L759.68 318.8L759.68 368.8L716.38 393.8L673.08 368.8L673.08 318.8zM716.38 593.8L759.68 618.8L759.68 668.8L716.38 693.8L673.08 668.8L673.08 618.8zM759.68 818.8L802.99 843.8L802.99 893.8L759.68 918.8L716.38 893.8L716.38 843.8zM716.38 893.8L759.68 918.8L759.68 968.8L716.38 993.8L673.08 968.8L673.08 918.8zM759.68 968.8L802.99 993.8L802.99 1043.8L759.68 1068.8L716.38 1043.8L716.38 993.8zM846.29 218.8L889.59 243.8L889.59 293.8L846.29 318.8L802.99 293.8L802.99 243.8zM846.29 518.8L889.59 543.8L889.59 593.8L846.29 618.8L802.99 593.8L802.99 543.8zM846.29 818.8L889.59 843.8L889.59 893.8L846.29 918.8L802.99 893.8L802.99 843.8zM932.89 68.8L976.2 93.8L976.2 143.8L932.89 168.8L889.59 143.8L889.59 93.8zM932.89 668.8L976.2 693.8L976.2 743.8L932.89 768.8L889.59 743.8L889.59 693.8zM889.59 743.8L932.89 768.8L932.89 818.8L889.59 843.8L846.29 818.8L846.29 768.8zM932.89 818.8L976.2 843.8L976.2 893.8L932.89 918.8L889.59 893.8L889.59 843.8zM889.59 1043.8L932.89 1068.8L932.89 1118.8L889.59 1143.8L846.29 1118.8L846.29 1068.8zM976.2 143.8L1019.5 168.8L1019.5 218.8L976.2 243.8L932.89 218.8L932.89 168.8zM976.2 443.8L1019.5 468.8L1019.5 518.8L976.2 543.8L932.89 518.8L932.89 468.8zM976.2 593.8L1019.5 618.8L1019.5 668.8L976.2 693.8L932.89 668.8L932.89 618.8zM1019.5 668.8L1062.8 693.8L1062.8 743.8L1019.5 768.8L976.2 743.8L976.2 693.8zM976.2 893.8L1019.5 918.8L1019.5 968.8L976.2 993.8L932.89 968.8L932.89 918.8zM1106.1 368.8L1149.4 393.8L1149.4 443.8L1106.1 468.8L1062.8 443.8L1062.8 393.8zM1062.8 443.8L1106.1 468.8L1106.1 518.8L1062.8 543.8L1019.5 518.8L1019.5 468.8zM1062.8 593.8L1106.1 618.8L1106.1 668.8L1062.8 693.8L1019.5 668.8L1019.5 618.8zM1149.4 293.8L1192.71 318.8L1192.71 368.8L1149.4 393.8L1106.1 368.8L1106.1 318.8zM1192.71 368.8L1236.01 393.8L1236.01 443.8L1192.71 468.8L1149.4 443.8L1149.4 393.8zM1149.4 443.8L1192.71 468.8L1192.71 518.8L1149.4 543.8L1106.1 518.8L1106.1 468.8zM1149.4 593.8L1192.71 618.8L1192.71 668.8L1149.4 693.8L1106.1 668.8L1106.1 618.8zM1149.4 743.8L1192.71 768.8L1192.71 818.8L1149.4 843.8L1106.1 818.8L1106.1 768.8zM1192.71 818.8L1236.01 843.8L1236.01 893.8L1192.71 918.8L1149.4 893.8L1149.4 843.8zM1192.71 968.8L1236.01 993.8L1236.01 1043.8L1192.71 1068.8L1149.4 1043.8L1149.4 993.8zM1149.4 1043.8L1192.71 1068.8L1192.71 1118.8L1149.4 1143.8L1106.1 1118.8L1106.1 1068.8zM1236.01 -6.2L1279.31 18.8L1279.31 68.8L1236.01 93.8L1192.71 68.8L1192.71 18.8zM1236.01 293.8L1279.31 318.8L1279.31 368.8L1236.01 393.8L1192.71 368.8L1192.71 318.8zM1236.01 893.8L1279.31 918.8L1279.31 968.8L1236.01 993.8L1192.71 968.8L1192.71 918.8zM1279.31 968.8L1322.62 993.8L1322.62 1043.8L1279.31 1068.8L1236.01 1043.8L1236.01 993.8zM1365.92 68.8L1409.22 93.8L1409.22 143.8L1365.92 168.8L1322.62 143.8L1322.62 93.8zM1365.92 218.8L1409.22 243.8L1409.22 293.8L1365.92 318.8L1322.62 293.8L1322.62 243.8zM1322.62 443.8L1365.92 468.8L1365.92 518.8L1322.62 543.8L1279.31 518.8L1279.31 468.8zM1322.62 593.8L1365.92 618.8L1365.92 668.8L1322.62 693.8L1279.31 668.8L1279.31 618.8zM1452.52 668.8L1495.83 693.8L1495.83 743.8L1452.52 768.8L1409.22 743.8L1409.22 693.8zM1539.13 368.8L1582.43 393.8L1582.43 443.8L1539.13 468.8L1495.83 443.8L1495.83 393.8zM1539.13 518.8L1582.43 543.8L1582.43 593.8L1539.13 618.8L1495.83 593.8L1495.83 543.8zM1539.13 668.8L1582.43 693.8L1582.43 743.8L1539.13 768.8L1495.83 743.8L1495.83 693.8zM1495.83 743.8L1539.13 768.8L1539.13 818.8L1495.83 843.8L1452.52 818.8L1452.52 768.8zM1582.43 293.8L1625.73 318.8L1625.73 368.8L1582.43 393.8L1539.13 368.8L1539.13 318.8zM1582.43 443.8L1625.73 468.8L1625.73 518.8L1582.43 543.8L1539.13 518.8L1539.13 468.8zM1582.43 593.8L1625.73 618.8L1625.73 668.8L1582.43 693.8L1539.13 668.8L1539.13 618.8zM1582.43 743.8L1625.73 768.8L1625.73 818.8L1582.43 843.8L1539.13 818.8L1539.13 768.8zM1625.73 968.8L1669.04 993.8L1669.04 1043.8L1625.73 1068.8L1582.43 1043.8L1582.43 993.8zM1712.34 368.8L1755.64 393.8L1755.64 443.8L1712.34 468.8L1669.04 443.8L1669.04 393.8zM1669.04 593.8L1712.34 618.8L1712.34 668.8L1669.04 693.8L1625.73 668.8L1625.73 618.8zM1669.04 743.8L1712.34 768.8L1712.34 818.8L1669.04 843.8L1625.73 818.8L1625.73 768.8zM1669.04 893.8L1712.34 918.8L1712.34 968.8L1669.04 993.8L1625.73 968.8L1625.73 918.8zM1755.64 143.8L1798.94 168.8L1798.94 218.8L1755.64 243.8L1712.34 218.8L1712.34 168.8zM1755.64 593.8L1798.94 618.8L1798.94 668.8L1755.64 693.8L1712.34 668.8L1712.34 618.8zM1798.94 668.8L1842.25 693.8L1842.25 743.8L1798.94 768.8L1755.64 743.8L1755.64 693.8zM1755.64 893.8L1798.94 918.8L1798.94 968.8L1755.64 993.8L1712.34 968.8L1712.34 918.8zM1798.94 968.8L1842.25 993.8L1842.25 1043.8L1798.94 1068.8L1755.64 1043.8L1755.64 993.8zM1842.25 293.8L1885.55 318.8L1885.55 368.8L1842.25 393.8L1798.94 368.8L1798.94 318.8zM1885.55 368.8L1928.85 393.8L1928.85 443.8L1885.55 468.8L1842.25 443.8L1842.25 393.8zM1842.25 443.8L1885.55 468.8L1885.55 518.8L1842.25 543.8L1798.94 518.8L1798.94 468.8zM1885.55 668.8L1928.85 693.8L1928.85 743.8L1885.55 768.8L1842.25 743.8L1842.25 693.8zM1928.85 -6.2L1972.15 18.8L1972.15 68.8L1928.85 93.8L1885.55 68.8L1885.55 18.8zM1972.15 68.8L2015.46 93.8L2015.46 143.8L1972.15 168.8L1928.85 143.8L1928.85 93.8zM1928.85 143.8L1972.15 168.8L1972.15 218.8L1928.85 243.8L1885.55 218.8L1885.55 168.8zM1928.85 593.8L1972.15 618.8L1972.15 668.8L1928.85 693.8L1885.55 668.8L1885.55 618.8zM1928.85 1043.8L1972.15 1068.8L1972.15 1118.8L1928.85 1143.8L1885.55 1118.8L1885.55 1068.8z" stroke="rgba(6, 80, 156, 0.93)" stroke-width="2"></path></g><defs><mask id="SvgjsMask1011"><rect width="1920" height="1080" fill="#ffffff"></rect></mask><linearGradient x1="10.94%" y1="-19.44%" x2="89.06%" y2="119.44%" gradientUnits="userSpaceOnUse" id="SvgjsLinearGradient1012"><stop stop-color="#0e2a47" offset="0"></stop><stop stop-color="#00459e" offset="1"></stop></linearGradient></defs></svg>